<svg class="main-svg" xmlns="http://www.w3.org/2000/svg" xmlns:xlink="http://www.w3.org/1999/xlink" width="690" height="500" style="" viewBox="0 0 690 500"><rect x="0" y="0" width="690" height="500" style="fill: rgb(246, 241, 231); fill-opacity: 1;"/><defs id="defs-f21a6a"><g class="clips"><clipPath id="clipf21a6axyplot" class="plotclip"><rect width="567" height="411"/></clipPath><clipPath class="axesclip" id="clipf21a6ax"><rect x="103" y="0" width="567" height="500"/></clipPath><clipPath class="axesclip" id="clipf21a6ay"><rect x="0" y="35" width="690" height="411"/></clipPath><clipPath class="axesclip" id="clipf21a6axy"><rect x="103" y="35" width="567" height="411"/></clipPath></g><g class="gradients"/><g class="patterns"/></defs><g class="bglayer"/><g class="layer-below"><g class="imagelayer"/><g class="shapelayer"/></g><g class="cartesianlayer"><g class="subplot xy"><g class="layer-subplot"><g class="shapelayer"/><g class="imagelayer"/></g><g class="minor-gridlayer"><g class="x"/><g class="y"/></g><g class="gridlayer"><g class="x"><path class="xgrid crisp" transform="translate(137.6,0)" d="M0,35v411" style="stroke: rgb(201, 192, 174); stroke-opacity: 1; stroke-width: 1px;"/><path class="xgrid crisp" transform="translate(469.47,0)" d="M0,35v411" style="stroke: rgb(201, 192, 174); stroke-opacity: 1; stroke-width: 1px;"/><path class="xgrid crisp" transform="translate(538.61,0)" d="M0,35v411" style="stroke: rgb(201, 192, 174); stroke-opacity: 1; stroke-width: 1px;"/><path class="xgrid crisp" transform="translate(580.0899999999999,0)" d="M0,35v411" style="stroke: rgb(201, 192, 174); stroke-opacity: 1; stroke-width: 1px;"/><path class="xgrid crisp" transform="translate(635.4,0)" d="M0,35v411" style="stroke: rgb(201, 192, 174); stroke-opacity: 1; stroke-width: 1px;"/></g><g class="y"><path class="ygrid crisp" transform="translate(0,247.13)" d="M103,0h567" style="stroke: rgb(201, 192, 174); stroke-opacity: 1; stroke-width: 1px;"/><path class="ygrid crisp" transform="translate(0,114.55)" d="M103,0h567" style="stroke: rgb(201, 192, 174); stroke-opacity: 1; stroke-width: 1px;"/></g></g><g class="zerolinelayer"><path class="xzl zl crisp" transform="translate(524.78,0)" d="M0,35v411" style="stroke: rgb(201, 192, 174); stroke-opacity: 1; stroke-width: 2px;"/><path class="yzl zl crisp" transform="translate(0,379.71)" d="M103,0h567" style="stroke: rgb(201, 192, 174); stroke-opacity: 1; stroke-width: 2px;"/></g><g class="layer-between"><g class="shapelayer"/><g class="imagelayer"/></g><path class="xlines-below"/><path class="ylines-below"/><g class="overlines-below"/><g class="xaxislayer-below"/><g class="yaxislayer-below"/><g class="overaxes-below"/><g class="overplot"><g class="xy" transform="translate(103,35)" clip-path="url(#clipf21a6axyplot)"><g class="scatterlayer mlayer"><g class="trace scatter traceb2ada2" style="stroke-miterlimit: 2; opacity: 1;"><g class="fills"/><g class="errorbars"/><g class="lines"><path class="js-line" d="M34.6,79.55L421.78,79.55" style="vector-effect: none; fill: none; stroke: rgb(15, 118, 110); stroke-opacity: 1; stroke-width: 10px; opacity: 1;"/></g><g class="points"><path class="point" transform="translate(34.6,79.55)" d="M5,0A5,5 0 1,1 0,-5A5,5 0 0,1 5,0Z" style="opacity: 1; stroke-width: 0px; fill: rgb(15, 118, 110); fill-opacity: 1;"/><path class="point" transform="translate(366.47,79.55)" d="M5,0A5,5 0 1,1 0,-5A5,5 0 0,1 5,0Z" style="opacity: 1; stroke-width: 0px; fill: rgb(15, 118, 110); fill-opacity: 1;"/><path class="point" transform="translate(421.78,79.55)" d="M5,0A5,5 0 1,1 0,-5A5,5 0 0,1 5,0Z" style="opacity: 1; stroke-width: 0px; fill: rgb(15, 118, 110); fill-opacity: 1;"/></g><g class="text"/></g><g class="trace scatter tracefe56c4" style="stroke-miterlimit: 2; opacity: 1;"><g class="fills"/><g class="errorbars"/><g class="lines"><path class="js-line" d="M424.08,212.13L532.4,212.13" style="vector-effect: none; fill: none; stroke: rgb(216, 161, 93); stroke-opacity: 1; stroke-width: 10px; opacity: 1;"/></g><g class="points"><path class="point" transform="translate(424.08,212.13)" d="M5,0A5,5 0 1,1 0,-5A5,5 0 0,1 5,0Z" style="opacity: 1; stroke-width: 0px; fill: rgb(216, 161, 93); fill-opacity: 1;"/><path class="point" transform="translate(532.4,212.13)" d="M5,0A5,5 0 1,1 0,-5A5,5 0 0,1 5,0Z" style="opacity: 1; stroke-width: 0px; fill: rgb(216, 161, 93); fill-opacity: 1;"/></g><g class="text"/></g><g class="trace scatter trace3267c8" style="stroke-miterlimit: 2; opacity: 1;"><g class="fills"/><g class="errorbars"/><g class="lines"><path class="js-line" d="M422.35,344.71L435.61,344.71" style="vector-effect: none; fill: none; stroke: rgb(38, 50, 56); stroke-opacity: 1; stroke-width: 10px; opacity: 1;"/></g><g class="points"><path class="point" transform="translate(422.35,344.71)" d="M5,0A5,5 0 1,1 0,-5A5,5 0 0,1 5,0Z" style="opacity: 1; stroke-width: 0px; fill: rgb(38, 50, 56); fill-opacity: 1;"/><path class="point" transform="translate(435.61,344.71)" d="M5,0A5,5 0 1,1 0,-5A5,5 0 0,1 5,0Z" style="opacity: 1; stroke-width: 0px; fill: rgb(38, 50, 56); fill-opacity: 1;"/></g><g class="text"/></g></g></g></g><path class="xlines-above crisp" d="M0,0" style="fill: none;"/><path class="ylines-above crisp" d="M0,0" style="fill: none;"/><g class="overlines-above"/><g class="xaxislayer-above"><g class="xtick"><text text-anchor="middle" x="0" y="459" transform="translate(137.6,0)" style="font-family: 'Avenir Next', Arial; font-size: 12px; fill: rgb(38, 50, 56); fill-opacity: 1; white-space: pre; opacity: 1;">−168</text></g><g class="xtick"><text text-anchor="middle" x="0" y="459" style="font-family: 'Avenir Next', Arial; font-size: 12px; fill: rgb(38, 50, 56); fill-opacity: 1; white-space: pre; opacity: 1;" transform="translate(469.47,0)">−24</text></g><g class="xtick"><text text-anchor="middle" x="0" y="459" style="font-family: 'Avenir Next', Arial; font-size: 12px; fill: rgb(38, 50, 56); fill-opacity: 1; white-space: pre; opacity: 1;" transform="translate(524.78,0)">0</text></g><g class="xtick"><text text-anchor="middle" x="0" y="459" style="font-family: 'Avenir Next', Arial; font-size: 12px; fill: rgb(38, 50, 56); fill-opacity: 1; white-space: pre; opacity: 1;" transform="translate(538.61,0)">6</text></g><g class="xtick"><text text-anchor="middle" x="0" y="459" style="font-family: 'Avenir Next', Arial; font-size: 12px; fill: rgb(38, 50, 56); fill-opacity: 1; white-space: pre; opacity: 1;" transform="translate(580.0899999999999,0)">24</text></g><g class="xtick"><text text-anchor="middle" x="0" y="459" style="font-family: 'Avenir Next', Arial; font-size: 12px; fill: rgb(38, 50, 56); fill-opacity: 1; white-space: pre; opacity: 1;" transform="translate(635.4,0)">48</text></g></g><g class="yaxislayer-above"><g class="ytick"><text text-anchor="end" x="102" y="4.199999999999999" transform="translate(0,379.71)" style="font-family: 'Avenir Next', Arial; font-size: 12px; fill: rgb(38, 50, 56); fill-opacity: 1; white-space: pre; opacity: 1;">Task B targets</text></g><g class="ytick"><text text-anchor="end" x="102" y="4.199999999999999" style="font-family: 'Avenir Next', Arial; font-size: 12px; fill: rgb(38, 50, 56); fill-opacity: 1; white-space: pre; opacity: 1;" transform="translate(0,247.13)">Task A targets</text></g><g class="ytick"><text text-anchor="end" x="102" y="4.199999999999999" style="font-family: 'Avenir Next', Arial; font-size: 12px; fill: rgb(38, 50, 56); fill-opacity: 1; white-space: pre; opacity: 1;" transform="translate(0,114.55)">observable state</text></g></g><g class="overaxes-above"/></g></g><g class="polarlayer"/><g class="smithlayer"/><g class="ternarylayer"/><g class="geolayer"/><g class="funnelarealayer"/><g class="pielayer"/><g class="iciclelayer"/><g class="treemaplayer"/><g class="sunburstlayer"/><g class="glimages"/><defs id="topdefs-f21a6a"><g class="clips"/></defs><g class="layer-above"><g class="imagelayer"/><g class="shapelayer"><g class="shape-group" data-index="0" clip-path="url(#clipf21a6ax)"><path data-index="0" fill-rule="evenodd" d="M524.78,446L524.78,35" style="opacity: 1; stroke: rgb(38, 50, 56); stroke-opacity: 1; fill: rgb(0, 0, 0); fill-opacity: 0; stroke-width: 2px;"/></g></g></g><g class="infolayer"><g class="g-gtitle"/><g class="g-xtitle"><text class="xtitle" x="386.5" y="487.8" text-anchor="middle" style="opacity: 1; font-family: 'Avenir Next', Arial; font-size: 14px; fill: rgb(38, 50, 56); fill-opacity: 1; white-space: pre;">hours relative to issue time</text></g><g class="g-ytitle"/><g class="annotation" data-index="0" style="opacity: 1;"><g class="annotation-text-g" transform="rotate(0,524.78,48.26)"><g class="cursor-pointer" transform="translate(495,38)"><rect class="bg" x="0.5" y="0.5" width="58" height="20" style="stroke-width: 1px; stroke: rgb(0, 0, 0); stroke-opacity: 0; fill: rgb(0, 0, 0); fill-opacity: 0;"/><text class="annotation-text" text-anchor="middle" x="29.390625" y="14" style="font-family: 'Avenir Next', Arial; font-size: 12px; fill: rgb(38, 50, 56); fill-opacity: 1; white-space: pre;">issue time</text></g></g></g></g></svg>